# xmcd
#
# Track frame offsets:
#	150
#	22204
#	40545
#	58637
#	83589
#	102755
#	125213
#	149819
#	167226
#	185454
#	205313
#	224076
#	244511
#	260305
#
# Disc length: 3728 seconds
#
# Revision: 1
# Processed by: cddbd v1.5.2PL0 Copyright (c) Steve Scherf et al.
# Submitted via: audiograbber 1.83.01
#
DISCID=d20e8e0e
DTITLE=Faith Hill - CB90256
DYEAR=1900
DGENRE=Country
TTITLE0=Faith Hill - Free
TTITLE1=Faith Hill - If You're gonna Fly Away
TTITLE2=Faith Hill - Cry
TTITLE3=Faith Hill - When The Lights Go Down
TTITLE4=Faith Hill - One
TTITLE5=Faith Hill - Beautiful
TTITLE6=Faith Hill - When You Cry
TTITLE7=Faith Hill - There You'll Be
TTITLE8=Faith Hill - Me
TTITLE9=Faith Hill - Baby You Belong
TTITLE10=Faith Hill - Unsaveable
TTITLE11=Faith Hill - Stronger
TTITLE12=Faith Hill - You're Still Here
TTITLE13=Faith Hill - This is Me
EXTD=
EXTT0=
EXTT1=
EXTT2=
EXTT3=
EXTT4=
EXTT5=
EXTT6=
EXTT7=
EXTT8=
EXTT9=
EXTT10=
EXTT11=
EXTT12=
EXTT13=
PLAYORDER=
